<?xml version="1.0" standalone="no"?>
<!DOCTYPE svg PUBLIC "-//W3C//DTD SVG 20010904//EN"
 "http://www.w3.org/TR/2001/REC-SVG-20010904/DTD/svg10.dtd">
<svg version="1.0" xmlns="http://www.w3.org/2000/svg"
 width="450.000000pt" height="450.000000pt" viewBox="0 0 450.000000 450.000000"
 preserveAspectRatio="xMidYMid meet">

<g transform="translate(0.000000,450.000000) scale(0.100000,-0.100000)"
fill="#000000" stroke="none">
<path d="M2570 2904 c-108 -9 -206 -27 -258 -46 -67 -25 -170 -90 -153 -96 7
-2 22 5 34 16 31 28 91 56 177 83 72 23 88 24 380 24 333 0 387 -6 513 -61 73
-32 114 -67 134 -112 13 -31 12 -38 -6 -75 -40 -82 -112 -138 -291 -226 -113
-57 -151 -74 -210 -96 -3 -1 -14 -5 -25 -10 -75 -30 -101 -40 -190 -70 -55
-19 -154 -50 -220 -70 -66 -20 -128 -38 -137 -41 -13 -4 -18 0 -18 14 0 19 65
151 163 332 60 111 87 168 87 184 0 8 6 17 13 20 6 3 3 5 -8 3 -14 -1 -31 -24
-55 -72 -19 -38 -57 -110 -84 -159 -26 -48 -75 -142 -107 -208 l-60 -120 -34
6 c-40 8 -49 -10 -10 -20 14 -3 25 -10 25 -14 0 -4 -38 -87 -85 -184 -47 -97
-85 -178 -85 -180 0 -2 -18 -43 -41 -90 -22 -47 -38 -90 -35 -95 4 -5 1 -11
-5 -13 -7 -2 -10 -11 -7 -18 5 -13 84 140 91 173 1 7 5 14 8 17 4 3 47 89 97
191 49 103 94 189 100 192 5 4 22 2 38 -3 16 -5 92 -25 169 -46 210 -56 346
-94 595 -169 282 -84 356 -105 372 -105 21 1 -64 29 -297 97 -121 36 -258 76
-305 89 -47 14 -141 41 -210 59 -265 73 -303 84 -311 92 -6 6 24 19 68 32 132
38 426 132 458 147 17 7 66 27 110 44 92 37 278 132 347 179 97 66 150 151
134 214 -8 34 -53 75 -116 107 -120 60 -243 81 -500 85 -113 1 -225 1 -250 -1z"/>
<path d="M1388 2865 c-84 -16 -273 -76 -328 -105 -19 -10 -71 -35 -115 -56
-205 -97 -557 -337 -539 -366 5 -7 2 -8 -6 -3 -9 6 -45 -25 -117 -100 -194
-203 -209 -309 -53 -369 85 -32 353 -30 568 5 112 18 308 63 290 67 -9 2 -50
-6 -90 -16 -164 -45 -491 -77 -638 -63 -93 9 -176 36 -179 59 -11 68 -5 129
17 159 13 18 20 38 16 44 -4 7 -3 9 3 6 5 -3 25 14 44 39 37 51 203 199 316
283 40 29 70 57 68 62 -3 4 0 11 6 15 8 4 9 3 5 -4 -12 -21 5 -13 63 26 31 21
103 65 161 97 58 33 106 63 108 67 2 4 11 8 20 8 10 0 42 12 72 26 135 63 311
114 397 114 47 0 59 -4 84 -29 41 -42 38 -80 -16 -202 -50 -112 -50 -113 -33
-103 7 4 8 3 4 -5 -4 -6 -11 -9 -16 -6 -5 3 -12 0 -15 -6 -5 -7 1 -9 16 -7 18
2 33 24 71 98 26 52 50 114 54 138 17 111 -71 158 -238 127z m229 -107 c-3 -7
-5 -2 -5 12 0 14 2 19 5 13 2 -7 2 -19 0 -25z m-1427 -668 c-6 -11 -13 -20
-16 -20 -2 0 0 9 6 20 6 11 13 20 16 20 2 0 0 -9 -6 -20z"/>
<path d="M3802 2438 c-17 -35 -62 -128 -100 -208 -62 -129 -74 -148 -113 -172
-32 -21 -46 -25 -56 -17 -10 9 -13 8 -13 -1 0 -8 -3 -11 -6 -8 -3 3 4 26 15
51 23 51 26 67 11 67 -11 0 -80 -37 -94 -51 -6 -5 -18 -9 -28 -9 -15 0 -17 5
-12 26 l6 25 -36 -15 c-21 -9 -50 -25 -66 -36 -50 -36 -61 -25 -36 35 22 52 0
42 -28 -12 -35 -66 -121 -125 -140 -94 -3 5 3 34 14 65 10 30 15 58 10 61 -4
3 -44 -31 -87 -75 -107 -108 -124 -105 -83 15 23 66 25 84 9 68 -6 -6 -12 -17
-13 -24 -2 -8 -13 -36 -25 -63 -28 -63 -25 -90 10 -94 20 -2 39 8 75 42 l49
45 8 -30 c10 -40 31 -46 75 -23 21 10 40 20 44 22 3 2 8 -6 10 -17 3 -17 12
-13 76 37 57 44 75 53 82 42 5 -9 2 -22 -11 -38 -10 -14 -19 -29 -19 -33 0
-19 24 -7 92 46 78 61 98 61 78 1 -19 -59 7 -73 68 -36 43 26 46 25 39 -10 -6
-27 -5 -29 13 -18 15 10 22 9 38 -5 28 -25 47 -21 91 21 46 43 69 111 52 149
-13 29 -39 29 -88 1 l-38 -23 22 29 c13 15 20 32 17 37 -3 5 -1 9 4 9 8 0 30
45 68 135 19 47 54 127 61 138 2 4 0 7 -5 7 -5 0 -23 -28 -40 -62z m-17 -267
c10 -18 -36 -120 -67 -146 -32 -27 -51 -23 -63 15 -18 56 101 176 130 131z"/>
<path d="M1307 2379 c-30 -63 -64 -136 -77 -164 -13 -27 -41 -88 -62 -134 -21
-46 -37 -88 -35 -94 2 -6 24 16 49 49 47 60 67 80 111 109 33 22 41 8 32 -61
-8 -64 2 -73 58 -49 39 16 57 13 57 -10 0 -7 18 -20 41 -29 49 -20 102 -9 149
30 29 25 30 25 30 5 0 -34 -77 -179 -105 -197 -24 -16 -57 -16 -100 1 l-20 8
20 -16 c28 -22 84 -21 123 3 25 16 46 47 91 140 32 65 56 121 54 124 -3 3 4 2
15 -1 11 -2 23 0 26 6 4 7 -1 11 -14 11 -25 0 -25 0 32 144 51 128 74 173 105
202 14 13 20 24 13 24 -34 0 -88 -80 -139 -206 -64 -159 -63 -158 -90 -162
-24 -4 -29 -22 -5 -22 23 0 4 -22 -54 -60 -30 -20 -58 -30 -83 -30 -70 0 -96
62 -29 68 60 4 77 11 94 37 15 23 15 25 -5 35 -30 17 -73 3 -116 -37 -61 -57
-131 -78 -141 -42 -3 12 -2 12 6 0 7 -10 12 1 17 38 5 35 3 56 -5 66 -17 21
-30 19 -74 -11 -62 -42 -64 -19 -8 92 59 118 106 234 98 242 -3 3 -30 -46 -59
-109z m270 -255 c8 -22 -24 -46 -56 -42 -35 4 -37 24 -4 42 37 20 52 20 60 0z
m110 -76 c-3 -8 -6 -5 -6 6 -1 11 2 17 5 13 3 -3 4 -12 1 -19z"/>
<path d="M3916 2225 c-18 -28 -20 -35 -7 -35 13 0 42 48 32 54 -5 3 -16 -5
-25 -19z"/>
<path d="M4093 2138 c11 -9 16 -20 11 -31 -8 -22 -52 -33 -67 -18 -9 10 -6 17
13 33 l25 21 -25 -8 c-14 -4 -45 -28 -70 -55 -43 -45 -108 -78 -129 -65 -9 5
6 56 30 99 8 14 7 17 -3 14 -7 -3 -24 -26 -37 -52 -19 -37 -22 -52 -14 -64 15
-23 69 -19 105 8 l30 22 14 -21 c22 -31 77 -43 124 -26 45 16 97 52 105 73 3
8 -11 0 -31 -18 -42 -36 -73 -50 -114 -50 -46 0 -60 10 -60 41 0 27 2 29 43
29 23 0 53 7 65 16 31 21 26 58 -8 62 -23 3 -24 3 -7 -10z"/>
</g>
</svg>
